<svg width="30" height="30" viewBox="0 0 30 30" fill="none" xmlns="http://www.w3.org/2000/svg">
<g clip-path="url(#clip0_538_1036)">
<path d="M22.623 7.81343C24.3814 8.00076 26.1503 8.0722 27.9181 8.0273L27.9134 8.02027C25.826 4.86821 23.1301 2.16476 19.9839 0.068512C19.9381 1.84535 20.0102 3.62327 20.1996 5.39058C20.3349 6.55777 21.4547 7.67574 22.623 7.81343Z" fill="black"/>
<path d="M17.0507 27.4465C14.7272 27.4455 12.4054 27.3213 10.0951 27.0744H10.0781C7.47711 26.772 5.11578 24.4107 4.81402 21.8103V21.8027V21.7969C4.35172 17.4697 4.31949 9.83904 4.71675 5.04724C3.48629 5.73865 2.50543 7.03943 2.34957 8.38064C1.86675 12.9017 1.86675 21.2965 2.34957 25.817C2.56343 27.6597 4.33062 29.4269 6.17281 29.6408C10.681 30.1236 15.2279 30.1236 19.7361 29.6408C21.1166 29.4802 22.4548 28.4478 23.1293 27.1652C21.1048 27.351 19.064 27.4465 17.0507 27.4465Z" fill="black"/>
<path d="M27.9738 9.66793H27.9591C27.6116 9.67672 27.2595 9.68082 26.912 9.68082C25.421 9.68062 23.931 9.60121 22.4484 9.44293H22.4413H22.4343C21.5038 9.33512 20.5909 8.87574 19.8644 8.14918C19.1378 7.42262 18.6779 6.50856 18.57 5.57926V5.57164V5.56461C18.3733 3.72567 18.2975 1.87579 18.3433 0.0269158V0.0134393C15.6465 -0.0420993 12.9488 0.0737591 10.2667 0.360314C8.42395 0.574181 6.65676 2.34371 6.44524 4.18356C5.96243 8.70465 5.96243 17.0988 6.44524 21.6199C6.65911 23.4621 8.42629 25.2293 10.2691 25.4431C14.7771 25.9259 19.3238 25.9259 23.8318 25.4431C25.6745 25.2293 27.4411 23.4627 27.655 21.6199C27.9761 18.5959 28.0827 13.8404 27.9738 9.66793ZM11.1327 10.6054H19.0318C19.2493 10.6054 19.458 10.6919 19.6118 10.8457C19.7657 10.9995 19.8521 11.2082 19.8521 11.4257C19.8521 11.6433 19.7657 11.852 19.6118 12.0058C19.458 12.1596 19.2493 12.2461 19.0318 12.2461H11.1327C10.9152 12.2461 10.7065 12.1596 10.5527 12.0058C10.3989 11.852 10.3124 11.6433 10.3124 11.4257C10.3124 11.2082 10.3989 10.9995 10.5527 10.8457C10.7065 10.6919 10.9152 10.6054 11.1327 10.6054ZM19.5761 19.9119H11.1327C10.9152 19.9119 10.7065 19.8255 10.5527 19.6716C10.3989 19.5178 10.3124 19.3091 10.3124 19.0916C10.3124 18.874 10.3989 18.6654 10.5527 18.5115C10.7065 18.3577 10.9152 18.2713 11.1327 18.2713H19.5761C19.7937 18.2713 20.0023 18.3577 20.1561 18.5115C20.31 18.6654 20.3964 18.874 20.3964 19.0916C20.3964 19.3091 20.31 19.5178 20.1561 19.6716C20.0023 19.8255 19.7937 19.9119 19.5761 19.9119ZM22.7929 16.0763H11.1327C10.9152 16.0763 10.7065 15.9899 10.5527 15.8361C10.3989 15.6822 10.3124 15.4736 10.3124 15.256C10.3124 15.0385 10.3989 14.8298 10.5527 14.676C10.7065 14.5221 10.9152 14.4357 11.1327 14.4357H22.7929C23.0105 14.4357 23.2191 14.5221 23.3729 14.676C23.5268 14.8298 23.6132 15.0385 23.6132 15.256C23.6132 15.4736 23.5268 15.6822 23.3729 15.8361C23.2191 15.9899 23.0105 16.0763 22.7929 16.0763Z" fill="black"/>
</g>
<defs>
<clipPath id="clip0_538_1036">
<rect width="30" height="30" fill="white"/>
</clipPath>
</defs>
</svg>
