<svg width="30" height="30" viewBox="0 0 30 30" fill="none" xmlns="http://www.w3.org/2000/svg">
<g clip-path="url(#clip0_538_1006)">
<path d="M24.0282 18.0565C22.847 18.0565 21.6924 18.4067 20.7104 19.0629C19.7283 19.7191 18.9629 20.6518 18.5109 21.743C18.0589 22.8343 17.9406 24.035 18.171 25.1934C18.4015 26.3519 18.9702 27.4159 19.8054 28.2511C20.6406 29.0863 21.7047 29.6551 22.8631 29.8855C24.0215 30.1159 25.2223 29.9977 26.3135 29.5457C27.4047 29.0937 28.3374 28.3282 28.9936 27.3462C29.6498 26.3641 30 25.2095 30 24.0284C30 22.4445 29.3708 20.9256 28.2509 19.8056C27.131 18.6857 25.612 18.0565 24.0282 18.0565ZM27.6141 22.7686L23.6356 26.9874C23.5589 27.0688 23.4664 27.1336 23.3637 27.178C23.261 27.2223 23.1503 27.2452 23.0385 27.2452H23.0274C22.9139 27.2438 22.8019 27.2189 22.6985 27.172C22.5951 27.1251 22.5026 27.0572 22.4268 26.9727L20.3321 24.6354C20.1868 24.4734 20.1119 24.2603 20.1238 24.0431C20.1357 23.8259 20.2333 23.6222 20.3953 23.477C20.5573 23.3318 20.7704 23.2569 20.9876 23.2687C21.2049 23.2806 21.4085 23.3783 21.5537 23.5403L23.0543 25.2131L26.4205 21.643C26.4944 21.5646 26.5831 21.5015 26.6814 21.4574C26.7796 21.4132 26.8857 21.3889 26.9934 21.3857C27.1011 21.3825 27.2083 21.4006 27.3091 21.4388C27.4098 21.4771 27.502 21.5348 27.5804 21.6087C27.6588 21.6827 27.7219 21.7713 27.766 21.8696C27.8102 21.9679 27.8346 22.0739 27.8378 22.1816C27.8409 22.2893 27.8229 22.3966 27.7846 22.4973C27.7463 22.598 27.6886 22.6902 27.6147 22.7686H27.6141Z" fill="#008F3D"/>
<path d="M27.1221 10.4789C26.7318 10.4889 26.3422 10.4954 25.9543 10.4954C24.3069 10.4948 22.6606 10.407 21.0225 10.2323H21.0084C20.0316 10.1192 19.0748 9.63461 18.3061 8.86821C17.5373 8.1018 17.0557 7.14262 16.942 6.16645C16.9423 6.16176 16.9423 6.15707 16.942 6.15238C16.7244 4.11613 16.6414 2.06773 16.6936 0.020549C13.6147 -0.0536594 10.5344 0.0731727 7.47207 0.400237C5.42656 0.637541 3.46543 2.59926 3.22754 4.64477C2.69141 9.66332 2.69141 18.9821 3.22754 24.0006C3.46484 26.0461 5.42656 28.0079 7.47207 28.2452C10.9448 28.6169 14.4403 28.7307 17.9299 28.5856C17.1907 27.5944 16.7032 26.4386 16.5093 25.2174C16.3154 23.9962 16.4208 22.7463 16.8166 21.5748H8.6416C8.42404 21.5748 8.21539 21.4884 8.06155 21.3346C7.90771 21.1807 7.82129 20.9721 7.82129 20.7545C7.82129 20.537 7.90771 20.3283 8.06155 20.1745C8.21539 20.0206 8.42404 19.9342 8.6416 19.9342H17.6064C18.258 18.918 19.1393 18.0692 20.1793 17.4563H8.6416C8.42404 17.4563 8.21539 17.3699 8.06155 17.216C7.90771 17.0622 7.82129 16.8535 7.82129 16.636C7.82129 16.4184 7.90771 16.2098 8.06155 16.0559C8.21539 15.9021 8.42404 15.8157 8.6416 15.8157H21.3564C21.574 15.8157 21.7827 15.9021 21.9365 16.0559C22.0903 16.2098 22.1768 16.4184 22.1768 16.636V16.6407C23.8357 16.2299 25.5844 16.3846 27.1455 17.0801C27.1906 14.901 27.1824 12.6153 27.1221 10.4789ZM17.2572 13.3383H8.64395C8.42639 13.3383 8.21774 13.2519 8.0639 13.0981C7.91006 12.9442 7.82363 12.7356 7.82363 12.518C7.82363 12.3004 7.91006 12.0918 8.0639 11.938C8.21774 11.7841 8.42639 11.6977 8.64395 11.6977H17.2572C17.4748 11.6977 17.6834 11.7841 17.8373 11.938C17.9911 12.0918 18.0775 12.3004 18.0775 12.518C18.0775 12.7356 17.9911 12.9442 17.8373 13.0981C17.6834 13.2519 17.4748 13.3383 17.2572 13.3383Z" fill="#008F3D"/>
<path d="M21.1886 8.6717C23.1405 8.88048 25.1042 8.96054 27.0667 8.91135L27.062 8.90373C24.7443 5.40482 21.7515 2.40379 18.2589 0.0765839C18.2082 2.04886 18.2883 4.02232 18.4985 5.98401C18.6485 7.2801 19.8919 8.52346 21.1886 8.6717Z" fill="#008F3D"/>
</g>
<defs>
<clipPath id="clip0_538_1006">
<rect width="30" height="30" fill="white"/>
</clipPath>
</defs>
</svg>
