<svg width="30" height="30" viewBox="0 0 30 30" fill="none" xmlns="http://www.w3.org/2000/svg">
<g clip-path="url(#clip0_538_1031)">
<path d="M24.0282 18.0562C22.8471 18.0562 21.6925 18.4065 20.7104 19.0627C19.7283 19.7189 18.9629 20.6515 18.5109 21.7428C18.0589 22.834 17.9407 24.0347 18.1711 25.1932C18.4015 26.3516 18.9703 27.4157 19.8055 28.2509C20.6406 29.086 21.7047 29.6548 22.8632 29.8852C24.0216 30.1157 25.2223 29.9974 26.3135 29.5454C27.4048 29.0934 28.3374 28.328 28.9936 27.3459C29.6498 26.3638 30.0001 25.2092 30.0001 24.0281C30.0001 22.4443 29.3709 20.9253 28.251 19.8054C27.131 18.6854 25.6121 18.0562 24.0282 18.0562ZM26.9145 24.8484H24.8485V26.9144C24.8485 27.132 24.7621 27.3406 24.6083 27.4945C24.4544 27.6483 24.2458 27.7347 24.0282 27.7347C23.8107 27.7347 23.602 27.6483 23.4482 27.4945C23.2943 27.3406 23.2079 27.132 23.2079 26.9144V24.8484H21.1419C20.9243 24.8484 20.7157 24.762 20.5618 24.6082C20.408 24.4543 20.3216 24.2457 20.3216 24.0281C20.3216 23.8105 20.408 23.6019 20.5618 23.4481C20.7157 23.2942 20.9243 23.2078 21.1419 23.2078H23.2079V21.1418C23.2079 20.9242 23.2943 20.7156 23.4482 20.5617C23.602 20.4079 23.8107 20.3215 24.0282 20.3215C24.2458 20.3215 24.4544 20.4079 24.6083 20.5617C24.7621 20.7156 24.8485 20.9242 24.8485 21.1418V23.2078H26.9145C27.1321 23.2078 27.3408 23.2942 27.4946 23.4481C27.6484 23.6019 27.7349 23.8105 27.7349 24.0281C27.7349 24.2457 27.6484 24.4543 27.4946 24.6082C27.3408 24.762 27.1321 24.8484 26.9145 24.8484Z" fill="#1075C9"/>
<path d="M27.1219 10.4789C26.7317 10.4889 26.3421 10.4954 25.9542 10.4954C24.3067 10.4948 22.6605 10.407 21.0223 10.2323H21.0083C20.0315 10.1192 19.0747 9.63461 18.3059 8.86821C17.5372 8.1018 17.0555 7.14262 16.9419 6.16645C16.9422 6.16176 16.9422 6.15707 16.9419 6.15238C16.7243 4.11613 16.6413 2.06773 16.6934 0.020549C13.6146 -0.0536594 10.5342 0.0731727 7.47195 0.400237C5.42644 0.637541 3.46531 2.59926 3.22742 4.64477C2.69128 9.66332 2.69128 18.9821 3.22742 24.0006C3.46472 26.0461 5.42644 28.0079 7.47195 28.2452C10.9447 28.6169 14.4402 28.7307 17.9298 28.5856C17.1906 27.5944 16.7031 26.4386 16.5092 25.2174C16.3152 23.9962 16.4207 22.7463 16.8165 21.5748H8.64148C8.42392 21.5748 8.21527 21.4884 8.06143 21.3346C7.90759 21.1807 7.82117 20.9721 7.82117 20.7545C7.82117 20.537 7.90759 20.3283 8.06143 20.1745C8.21527 20.0206 8.42392 19.9342 8.64148 19.9342H17.6063C18.2579 18.918 19.1392 18.0692 20.1792 17.4563H8.64148C8.42392 17.4563 8.21527 17.3699 8.06143 17.216C7.90759 17.0622 7.82117 16.8535 7.82117 16.636C7.82117 16.4184 7.90759 16.2098 8.06143 16.0559C8.21527 15.9021 8.42392 15.8157 8.64148 15.8157H21.3563C21.5739 15.8157 21.7825 15.9021 21.9364 16.0559C22.0902 16.2098 22.1766 16.4184 22.1766 16.636V16.6407C23.8356 16.2299 25.5842 16.3846 27.1454 17.0801C27.1905 14.901 27.1823 12.6153 27.1219 10.4789ZM17.2571 13.3383H8.64382C8.42626 13.3383 8.21761 13.2519 8.06377 13.0981C7.90994 12.9442 7.82351 12.7356 7.82351 12.518C7.82351 12.3004 7.90994 12.0918 8.06377 11.938C8.21761 11.7841 8.42626 11.6977 8.64382 11.6977H17.2571C17.4747 11.6977 17.6833 11.7841 17.8372 11.938C17.991 12.0918 18.0774 12.3004 18.0774 12.518C18.0774 12.7356 17.991 12.9442 17.8372 13.0981C17.6833 13.2519 17.4747 13.3383 17.2571 13.3383Z" fill="#1075C9"/>
<path d="M21.1887 8.67182C23.1407 8.8806 25.1044 8.96066 27.0669 8.91147L27.0622 8.90385C24.7445 5.40494 21.7516 2.40391 18.2591 0.0767059C18.2084 2.04898 18.2885 4.02244 18.4987 5.98413C18.6487 7.28022 19.8921 8.52358 21.1887 8.67182Z" fill="#1075C9"/>
</g>
<defs>
<clipPath id="clip0_538_1031">
<rect width="30" height="30" fill="white"/>
</clipPath>
</defs>
</svg>
