<svg width="30" height="30" viewBox="0 0 30 30" fill="none" xmlns="http://www.w3.org/2000/svg">
<g clip-path="url(#clip0_538_1026)">
<path d="M21.1884 8.67184C23.1404 8.88062 25.104 8.96068 27.0666 8.91149L27.0619 8.90387C24.7442 5.40495 21.7513 2.40393 18.2587 0.0767212C18.2081 2.04899 18.2881 4.02246 18.4984 5.98414C18.6484 7.28024 19.8918 8.5236 21.1884 8.67184Z" fill="#894A33"/>
<path d="M27.1218 10.4789C26.7316 10.4889 26.3419 10.4953 25.9541 10.4953C24.3066 10.4948 22.6604 10.407 21.0222 10.2322H21.0082C20.0314 10.1191 19.0746 9.63457 18.3058 8.86816C17.5371 8.10175 17.0554 7.14257 16.9417 6.1664C16.942 6.16172 16.942 6.15702 16.9417 6.15234C16.7241 4.11608 16.6411 2.06769 16.6933 0.0205033C13.6145 -0.0537051 10.5341 0.073127 7.47183 0.400191C5.42632 0.637495 3.46519 2.59921 3.22729 4.64472C2.69116 9.66328 2.69116 18.982 3.22729 24.0006C3.4646 26.0461 5.42632 28.0078 7.47183 28.2451C10.9446 28.6169 14.4401 28.7307 17.9296 28.5855C17.1904 27.5944 16.703 26.4385 16.509 25.2174C16.3151 23.9962 16.4206 22.7462 16.8164 21.5748H8.64136C8.4238 21.5748 8.21515 21.4884 8.06131 21.3345C7.90747 21.1807 7.82104 20.972 7.82104 20.7545C7.82104 20.5369 7.90747 20.3283 8.06131 20.1744C8.21515 20.0206 8.4238 19.9342 8.64136 19.9342H17.6062C18.2578 18.918 19.1391 18.0692 20.1791 17.4562H8.64136C8.4238 17.4562 8.21515 17.3698 8.06131 17.216C7.90747 17.0621 7.82104 16.8535 7.82104 16.6359C7.82104 16.4184 7.90747 16.2097 8.06131 16.0559C8.21515 15.902 8.4238 15.8156 8.64136 15.8156H21.3562C21.5738 15.8156 21.7824 15.902 21.9362 16.0559C22.0901 16.2097 22.1765 16.4184 22.1765 16.6359V16.6406C23.8355 16.2299 25.5841 16.3845 27.1453 17.0801C27.1904 14.901 27.1822 12.6152 27.1218 10.4789ZM17.257 13.3383H8.6437C8.42614 13.3383 8.21749 13.2519 8.06365 13.098C7.90981 12.9442 7.82339 12.7355 7.82339 12.518C7.82339 12.3004 7.90981 12.0918 8.06365 11.9379C8.21749 11.7841 8.42614 11.6977 8.6437 11.6977H17.257C17.4745 11.6977 17.6832 11.7841 17.837 11.9379C17.9909 12.0918 18.0773 12.3004 18.0773 12.518C18.0773 12.7355 17.9909 12.9442 17.837 13.098C17.6832 13.2519 17.4745 13.3383 17.257 13.3383Z" fill="#894A33"/>
<path d="M24.0273 18.0556C22.846 18.0556 21.6913 18.4059 20.7091 19.0622C19.7269 19.7185 18.9614 20.6513 18.5094 21.7427C18.0574 22.834 17.9391 24.0349 18.1696 25.1935C18.4001 26.352 18.969 27.4162 19.8043 28.2515C20.6396 29.0867 21.7039 29.6555 22.8625 29.8859C24.021 30.1162 25.2219 29.9979 26.3132 29.5457C27.4046 29.0936 28.3373 28.328 28.9935 27.3458C29.6497 26.3635 29.9999 25.2088 29.9997 24.0275C29.9997 23.2432 29.8452 22.4666 29.5451 21.742C29.2449 21.0174 28.805 20.3591 28.2504 19.8045C27.6958 19.25 27.0374 18.8101 26.3128 18.51C25.5882 18.21 24.8116 18.0555 24.0273 18.0556ZM22.914 21.0644C22.914 20.7691 23.0313 20.486 23.2401 20.2772C23.4488 20.0684 23.732 19.9511 24.0273 19.9511C24.3225 19.9511 24.6057 20.0684 24.8145 20.2772C25.0233 20.486 25.1406 20.7691 25.1406 21.0644V24.0017C25.1406 24.297 25.0233 24.5801 24.8145 24.7889C24.6057 24.9977 24.3225 25.115 24.0273 25.115C23.732 25.115 23.4488 24.9977 23.2401 24.7889C23.0313 24.5801 22.914 24.297 22.914 24.0017V21.0644ZM25.1171 27.5683C25.0918 27.6871 25.0326 27.796 24.9468 27.8819C24.8609 27.9678 24.7519 28.027 24.6331 28.0523C24.239 28.1132 23.8378 28.1132 23.4437 28.0523C23.3249 28.027 23.2159 27.9678 23.1301 27.8819C23.0442 27.796 22.985 27.6871 22.9597 27.5683C22.8988 27.1744 22.8988 26.7734 22.9597 26.3794C22.9849 26.2606 23.0441 26.1516 23.13 26.0657C23.2159 25.9798 23.3248 25.9207 23.4437 25.8955C23.8378 25.8345 24.239 25.8345 24.6331 25.8955C24.752 25.9207 24.8609 25.9798 24.9468 26.0657C25.0327 26.1516 25.0919 26.2606 25.1171 26.3794C25.1781 26.7734 25.1781 27.1744 25.1171 27.5683Z" fill="#894A33"/>
</g>
<defs>
<clipPath id="clip0_538_1026">
<rect width="30" height="30" fill="white"/>
</clipPath>
</defs>
</svg>
