<svg width="30" height="30" viewBox="0 0 30 30" fill="none" xmlns="http://www.w3.org/2000/svg">
<g clip-path="url(#clip0_538_1021)">
<path d="M24.0279 18.0562C22.8468 18.0562 21.6922 18.4065 20.7101 19.0627C19.728 19.7189 18.9626 20.6515 18.5106 21.7428C18.0586 22.834 17.9404 24.0347 18.1708 25.1932C18.4012 26.3516 18.97 27.4157 19.8052 28.2509C20.6403 29.086 21.7044 29.6548 22.8629 29.8852C24.0213 30.1157 25.222 29.9974 26.3132 29.5454C27.4045 29.0934 28.3371 28.328 28.9933 27.3459C29.6495 26.3638 29.9998 25.2092 29.9998 24.0281C29.9998 22.4443 29.3706 20.9253 28.2507 19.8054C27.1307 18.6854 25.6117 18.0562 24.0279 18.0562ZM26.9142 24.8484H21.1416C20.924 24.8484 20.7154 24.762 20.5615 24.6082C20.4077 24.4543 20.3213 24.2457 20.3213 24.0281C20.3213 23.8105 20.4077 23.6019 20.5615 23.4481C20.7154 23.2942 20.924 23.2078 21.1416 23.2078H26.9142C27.1318 23.2078 27.3404 23.2942 27.4943 23.4481C27.6481 23.6019 27.7345 23.8105 27.7345 24.0281C27.7345 24.2457 27.6481 24.4543 27.4943 24.6082C27.3404 24.762 27.1318 24.8484 26.9142 24.8484Z" fill="#B40000"/>
<path d="M27.1218 10.4789C26.7316 10.4889 26.3419 10.4953 25.9541 10.4953C24.3066 10.4948 22.6604 10.407 21.0222 10.2322H21.0082C20.0314 10.1192 19.0746 9.63458 18.3058 8.86818C17.5371 8.10177 17.0554 7.14259 16.9417 6.16642C16.942 6.16173 16.942 6.15704 16.9417 6.15235C16.7241 4.1161 16.6411 2.0677 16.6933 0.0205185C13.6145 -0.0536899 10.5341 0.0731422 7.47183 0.400206C5.42632 0.637511 3.46519 2.59923 3.22729 4.64474C2.69116 9.66329 2.69116 18.982 3.22729 24.0006C3.4646 26.0461 5.42632 28.0078 7.47183 28.2451C10.9446 28.6169 14.4401 28.7307 17.9296 28.5856C17.1904 27.5944 16.703 26.4385 16.509 25.2174C16.3151 23.9962 16.4206 22.7462 16.8164 21.5748H8.64136C8.4238 21.5748 8.21515 21.4884 8.06131 21.3346C7.90747 21.1807 7.82104 20.9721 7.82104 20.7545C7.82104 20.5369 7.90747 20.3283 8.06131 20.1745C8.21515 20.0206 8.4238 19.9342 8.64136 19.9342H17.6062C18.2578 18.918 19.1391 18.0692 20.1791 17.4563H8.64136C8.4238 17.4563 8.21515 17.3698 8.06131 17.216C7.90747 17.0622 7.82104 16.8535 7.82104 16.636C7.82104 16.4184 7.90747 16.2097 8.06131 16.0559C8.21515 15.9021 8.4238 15.8156 8.64136 15.8156H21.3562C21.5738 15.8156 21.7824 15.9021 21.9363 16.0559C22.0901 16.2097 22.1765 16.4184 22.1765 16.636V16.6406C23.8355 16.2299 25.5841 16.3845 27.1453 17.0801C27.1904 14.901 27.1822 12.6152 27.1218 10.4789ZM17.257 13.3383H8.6437C8.42614 13.3383 8.21749 13.2519 8.06365 13.098C7.90981 12.9442 7.82339 12.7355 7.82339 12.518C7.82339 12.3004 7.90981 12.0918 8.06365 11.9379C8.21749 11.7841 8.42614 11.6977 8.6437 11.6977H17.257C17.4745 11.6977 17.6832 11.7841 17.837 11.9379C17.9909 12.0918 18.0773 12.3004 18.0773 12.518C18.0773 12.7355 17.9909 12.9442 17.837 13.098C17.6832 13.2519 17.4745 13.3383 17.257 13.3383Z" fill="#B40000"/>
<path d="M21.1886 8.67185C23.1405 8.88064 25.1042 8.96069 27.0667 8.9115L27.062 8.90389C24.7443 5.40497 21.7515 2.40394 18.2589 0.0767365C18.2082 2.04901 18.2883 4.02247 18.4985 5.98416C18.6485 7.28025 19.8919 8.52361 21.1886 8.67185Z" fill="#B40000"/>
</g>
<defs>
<clipPath id="clip0_538_1021">
<rect width="30" height="30" fill="white"/>
</clipPath>
</defs>
</svg>
