<svg width="30" height="30" viewBox="0 0 30 30" fill="none" xmlns="http://www.w3.org/2000/svg">
<g clip-path="url(#clip0_538_1011)">
<path d="M24.0282 18.0565C22.8471 18.0565 21.6925 18.4067 20.7104 19.0629C19.7283 19.7191 18.9629 20.6518 18.5109 21.743C18.0589 22.8343 17.9407 24.035 18.1711 25.1934C18.4015 26.3519 18.9703 27.4159 19.8055 28.2511C20.6406 29.0863 21.7047 29.6551 22.8632 29.8855C24.0216 30.1159 25.2223 29.9977 26.3135 29.5457C27.4048 29.0937 28.3374 28.3282 28.9936 27.3462C29.6498 26.3641 30.0001 25.2095 30.0001 24.0284C30.0001 22.4445 29.3709 20.9256 28.251 19.8056C27.131 18.6857 25.6121 18.0565 24.0282 18.0565ZM27.6141 22.7686L23.6356 26.9874C23.5589 27.0688 23.4664 27.1336 23.3637 27.178C23.2611 27.2223 23.1504 27.2452 23.0386 27.2452H23.0274C22.9139 27.2438 22.8019 27.2189 22.6986 27.172C22.5952 27.1251 22.5027 27.0572 22.4268 26.9727L20.3321 24.6354C20.1869 24.4734 20.112 24.2603 20.1238 24.0431C20.1357 23.8259 20.2334 23.6222 20.3954 23.477C20.5574 23.3318 20.7705 23.2569 20.9877 23.2687C21.2049 23.2806 21.4086 23.3783 21.5538 23.5403L23.0544 25.2131L26.4206 21.643C26.4945 21.5646 26.5831 21.5015 26.6814 21.4574C26.7797 21.4132 26.8857 21.3889 26.9934 21.3857C27.1011 21.3825 27.2084 21.4006 27.3091 21.4388C27.4099 21.4771 27.502 21.5348 27.5805 21.6087C27.6589 21.6827 27.722 21.7713 27.7661 21.8696C27.8103 21.9679 27.8346 22.0739 27.8378 22.1816C27.841 22.2893 27.8229 22.3966 27.7847 22.4973C27.7464 22.598 27.6886 22.6902 27.6147 22.7686H27.6141Z" fill="#DBC400"/>
<path d="M27.1221 10.4789C26.7319 10.4889 26.3423 10.4954 25.9544 10.4954C24.3069 10.4948 22.6607 10.407 21.0225 10.2323H21.0085C20.0317 10.1192 19.0749 9.63461 18.3061 8.86821C17.5374 8.1018 17.0557 7.14262 16.9421 6.16645C16.9423 6.16176 16.9423 6.15707 16.9421 6.15238C16.7244 4.11613 16.6415 2.06773 16.6936 0.020549C13.6148 -0.0536594 10.5344 0.0731727 7.47213 0.400237C5.42662 0.637541 3.46549 2.59926 3.2276 4.64477C2.69147 9.66332 2.69147 18.9821 3.2276 24.0006C3.4649 26.0461 5.42662 28.0079 7.47213 28.2452C10.9449 28.6169 14.4404 28.7307 17.9299 28.5856C17.1908 27.5944 16.7033 26.4386 16.5093 25.2174C16.3154 23.9962 16.4209 22.7463 16.8167 21.5748H8.64166C8.4241 21.5748 8.21545 21.4884 8.06161 21.3346C7.90778 21.1807 7.82135 20.9721 7.82135 20.7545C7.82135 20.537 7.90778 20.3283 8.06161 20.1745C8.21545 20.0206 8.4241 19.9342 8.64166 19.9342H17.6065C18.2581 18.918 19.1394 18.0692 20.1794 17.4563H8.64166C8.4241 17.4563 8.21545 17.3699 8.06161 17.216C7.90778 17.0622 7.82135 16.8535 7.82135 16.636C7.82135 16.4184 7.90778 16.2098 8.06161 16.0559C8.21545 15.9021 8.4241 15.8157 8.64166 15.8157H21.3565C21.5741 15.8157 21.7827 15.9021 21.9366 16.0559C22.0904 16.2098 22.1768 16.4184 22.1768 16.636V16.6407C23.8358 16.2299 25.5844 16.3846 27.1456 17.0801C27.1907 14.901 27.1825 12.6153 27.1221 10.4789ZM17.2573 13.3383H8.64401C8.42645 13.3383 8.2178 13.2519 8.06396 13.0981C7.91012 12.9442 7.82369 12.7356 7.82369 12.518C7.82369 12.3004 7.91012 12.0918 8.06396 11.938C8.2178 11.7841 8.42645 11.6977 8.64401 11.6977H17.2573C17.4748 11.6977 17.6835 11.7841 17.8373 11.938C17.9912 12.0918 18.0776 12.3004 18.0776 12.518C18.0776 12.7356 17.9912 12.9442 17.8373 13.0981C17.6835 13.2519 17.4748 13.3383 17.2573 13.3383Z" fill="#DBC400"/>
<path d="M21.1887 8.6717C23.1407 8.88048 25.1043 8.96054 27.0668 8.91135L27.0621 8.90373C24.7444 5.40482 21.7516 2.40379 18.259 0.0765839C18.2083 2.04886 18.2884 4.02232 18.4986 5.98401C18.6486 7.2801 19.892 8.52346 21.1887 8.6717Z" fill="#DBC400"/>
<circle cx="24" cy="24" r="5" fill="#DBC400"/>
<path d="M23.9998 25.0895C24.6017 25.0895 25.0895 24.6017 25.0895 23.9998C25.0895 23.398 24.6017 22.9102 23.9998 22.9102C23.398 22.9102 22.9102 23.398 22.9102 23.9998C22.9102 24.6017 23.398 25.0895 23.9998 25.0895Z" fill="white"/>
<path d="M27.9079 23.6999C26.9709 22.3122 25.4854 21.4997 24 21.5099C22.5145 21.4997 21.029 22.3122 20.092 23.6999C20.032 23.7884 20 23.8928 20 23.9997C20 24.1066 20.032 24.211 20.092 24.2995C21.029 25.6872 22.5145 26.4997 24 26.4895C25.4854 26.4997 26.9709 25.6872 27.9079 24.2995C27.9679 24.211 27.9999 24.1066 27.9999 23.9997C27.9999 23.8928 27.9679 23.7884 27.9079 23.6999ZM24 25.6831C23.667 25.6831 23.3415 25.5844 23.0647 25.3994C22.7878 25.2145 22.5721 24.9515 22.4447 24.6439C22.3172 24.3363 22.2839 23.9978 22.3489 23.6713C22.4138 23.3447 22.5742 23.0448 22.8096 22.8093C23.045 22.5739 23.345 22.4136 23.6715 22.3486C23.9981 22.2837 24.3366 22.317 24.6442 22.4444C24.9518 22.5718 25.2147 22.7876 25.3997 23.0644C25.5847 23.3413 25.6834 23.6668 25.6834 23.9997C25.6834 24.4462 25.506 24.8744 25.1903 25.1901C24.8746 25.5058 24.4464 25.6831 24 25.6831Z" fill="white"/>
</g>
<defs>
<clipPath id="clip0_538_1011">
<rect width="30" height="30" fill="white"/>
</clipPath>
</defs>
</svg>
